<svg version="1.1" id="Layer_1" xmlns="http://www.w3.org/2000/svg" xmlns:xlink="http://www.w3.org/1999/xlink" x="0px" y="0px"
	 width="100%" viewBox="0 0 1000 201" enable-background="new 0 0 1000 201" xml:space="preserve">
<path fill="none" opacity="1.000000" stroke="#000000" stroke-linecap="round" stroke-linejoin="round" stroke-width="2.000000"
	d="
M103.500000,140.000000 
	C107.221329,142.729340 111.103645,142.090836 115.519569,141.766235 
	C125.432014,141.037613 134.919846,138.673584 144.503067,136.513641 
	C146.530670,136.056641 148.399582,135.671326 149.539383,133.520874 
	C152.396866,128.129730 153.939468,127.418602 159.986862,129.048737 
	C164.240189,130.195267 167.820084,129.444702 170.455368,125.966187 
	C172.977966,122.636398 173.065720,118.946114 171.606522,114.960999 
	C170.955566,113.183189 170.314072,112.356453 167.992676,112.542755 
	C167.415878,113.688232 166.574646,115.044754 166.031372,116.511620 
	C165.224991,118.688919 164.033401,120.021751 161.498306,119.508339 
	C160.027924,119.210548 158.656509,119.673592 157.512604,120.517090 
	C146.791687,128.422516 133.787735,129.889328 121.541992,133.637207 
	C109.364006,137.364334 96.899193,137.038177 84.502678,138.033325 
	C83.962425,138.076691 83.461334,138.607925 82.912926,138.928909 
	C83.765701,141.110764 85.045853,142.833084 87.492668,142.452805 
	C92.646111,141.651886 98.281616,144.640869 103.000000,140.500000 
"/>
<path fill="none" opacity="1.000000" stroke="#000000" stroke-linecap="round" stroke-linejoin="round" stroke-width="2.000000"
	d="
M26.500002,89.500000 
	C32.333336,85.500000 38.169060,81.503487 43.998859,77.498337 
	C46.420635,75.834549 49.338017,76.088249 51.958080,75.351021 
	C59.068279,73.350388 66.528870,73.450798 73.577469,70.698387 
	C79.648590,68.327667 86.529137,70.012444 92.990822,69.402748 
	C106.091446,68.166626 118.216469,72.103699 130.530457,75.385727 
	C131.603775,75.671799 132.522369,76.152832 133.477280,76.554077 
	C134.561142,77.009499 135.470963,77.879204 136.417084,78.541267 
	C138.212296,77.606285 140.109070,76.949753 141.664215,74.445625 
	C134.100967,71.648438 128.764938,65.623398 121.458542,63.121040 
	C117.524956,61.773830 113.159134,61.062572 109.001427,61.114391 
	C97.001648,61.263943 85.298920,57.704742 72.860016,60.966087 
	C65.537445,62.885983 57.249905,62.808777 49.497410,64.488052 
	C35.952267,67.422073 24.335997,74.171989 13.500000,82.500000 
"/>
<path fill="none" opacity="1.000000" stroke="#000000" stroke-linecap="round" stroke-linejoin="round" stroke-width="2.000000"
	d="
M714.500000,120.000000 
	C712.342712,120.857719 710.515503,122.576515 708.000000,122.499313 
	C704.799133,122.401070 702.457703,123.776680 702.077759,127.009140 
	C701.704102,130.187531 702.851868,132.711761 705.936035,134.604233 
	C709.194885,136.603836 712.653687,137.028641 715.979492,136.392746 
	C726.385925,134.403076 736.581055,131.576447 746.080139,126.412407 
	C748.050537,126.674171 748.809448,128.785873 750.734253,129.517990 
	C750.265015,130.081421 749.950317,130.627731 749.489624,130.986649 
	C744.318726,135.015167 738.087341,136.567429 732.009705,138.530106 
	C726.459106,140.322586 720.852478,141.318863 714.998474,141.030563 
	C711.331604,140.849976 708.094116,143.016510 703.920654,141.764511 
	C699.021729,140.294846 694.392151,138.867615 690.500000,135.500000 
"/>
<path fill="none" opacity="1.000000" stroke="#000000" stroke-linecap="round" stroke-linejoin="round" stroke-width="2.000000"
	d="
M236.500000,42.500000 
	C238.896576,37.403011 242.691833,34.280636 248.251205,33.351200 
	C250.032455,36.633015 247.119904,37.649662 246.262024,39.902012 
	C247.525467,40.442135 248.951294,40.736755 249.960587,41.548969 
	C252.036377,43.219402 252.876404,45.439640 249.965363,46.932457 
	C246.131439,48.898552 245.499969,52.490723 244.466736,56.114910 
	C247.689468,59.291222 251.790497,57.890995 255.500732,57.930359 
	C263.786743,58.018276 270.675720,53.537609 278.009399,50.522877 
	C280.784821,49.381958 283.747803,48.678467 286.472595,47.439713 
	C288.416504,46.555973 290.260864,45.676769 291.425354,48.036827 
	C292.268158,49.744846 290.662018,50.887749 289.509613,52.009880 
	C286.286469,55.148464 281.773712,55.647690 277.912689,57.295368 
	C269.911804,60.709702 261.501648,63.384209 252.499527,62.504799 
	C250.937469,62.352200 249.743851,62.764591 248.441986,63.935490 
	C243.968201,67.959175 241.327621,67.961937 236.190720,64.278214 
	C233.836838,67.029152 231.232300,69.697556 227.003311,68.239510 
	C226.966476,71.138054 226.570236,72.089012 224.411270,74.603325 
	C228.226913,79.251411 223.029709,81.325584 221.500000,84.500000 
"/>
<path fill="none" opacity="1.000000" stroke="#000000" stroke-linecap="round" stroke-linejoin="round" stroke-width="2.000000"
	d="
M983.500000,94.500000 
	C986.147278,93.625572 986.338379,91.526100 985.416199,89.538887 
	C984.593506,87.765892 982.839050,88.269081 980.994385,88.330154 
	C976.833984,88.467903 973.022827,89.995750 968.996338,90.468811 
	C966.477661,90.764717 965.377014,92.364891 965.058777,94.508720 
	C964.815247,96.148933 964.915100,97.805038 963.326904,99.145683 
	C960.097778,97.409996 955.488892,98.987434 953.401184,94.861153 
	C951.214783,95.527489 950.804443,96.807312 950.981201,98.501961 
	C951.084412,99.491196 951.429688,100.978676 950.932617,101.424927 
	C946.615845,105.300163 946.773621,111.995682 941.978699,115.470627 
	C940.787781,116.333778 939.381836,117.261993 937.990906,117.419495 
	C933.846252,117.888817 930.922302,119.129608 928.773804,123.385818 
	C926.862488,127.172241 921.691040,127.818718 917.916260,129.284241 
	C911.763550,131.672958 906.222107,135.595123 899.016907,135.900101 
	C896.046387,136.025833 894.059814,135.556320 892.614746,133.899902 
	C890.795959,131.815094 890.926758,128.843994 892.546448,126.532539 
	C895.892212,121.757812 899.602417,117.238838 902.961304,112.472725 
	C904.954773,109.643944 906.568115,106.546211 907.077698,103.017525 
	C904.087769,102.190231 901.431946,101.707115 898.927490,104.433388 
	C896.818115,106.729691 894.131531,106.198830 890.961487,105.856621 
	C886.784790,105.405754 882.176758,107.091270 878.063843,108.666679 
	C875.899109,109.495857 874.394043,112.006752 873.464722,114.486786 
	C872.814453,116.222084 871.833618,117.833481 870.796509,119.908127 
	C874.177124,122.480568 875.502502,126.326263 875.393433,130.497208 
	C875.340698,132.515106 877.273315,132.946671 877.500000,134.500000 
"/>
<path fill="none" opacity="1.000000" stroke="#000000" stroke-linecap="round" stroke-linejoin="round" stroke-width="2.000000"
	d="
M316.500000,34.500000 
	C317.509583,32.712231 318.196259,30.946556 320.444824,29.883301 
	C324.488525,27.971186 327.378479,21.109150 326.499939,17.000013 
	C325.687317,13.198954 320.014923,9.717634 315.002441,9.453725 
	C306.062195,8.983022 297.210876,9.754119 288.525513,11.618869 
	C283.881744,12.615890 279.206818,14.313970 275.080841,16.643187 
	C270.785461,19.068018 268.423035,23.385654 268.000000,28.500000 
"/>
<path fill="none" opacity="1.000000" stroke="#000000" stroke-linecap="round" stroke-linejoin="round" stroke-width="2.000000"
	d="
M653.500000,136.499985 
	C650.500000,137.666656 647.513794,138.870438 644.496643,139.991013 
	C640.308594,141.546494 636.106567,143.191650 631.502441,142.483994 
	C626.749329,141.753464 626.301819,146.252304 624.056702,148.505234 
	C621.502136,148.472290 617.263489,143.918365 617.500000,151.000000 
	C614.187378,152.371613 612.627258,156.010651 609.462280,157.415024 
	C607.328613,158.361786 607.487244,159.827332 607.500122,161.500000 
	C607.534729,165.994934 605.451538,168.647171 601.007874,168.372360 
	C596.870728,168.116486 595.283691,169.791656 595.007263,173.500549 
	C594.886169,175.125122 594.460999,176.878281 592.975952,177.435898 
	C584.624695,180.571686 579.426636,188.213654 571.556702,192.114410 
	C566.929321,194.408020 561.257324,194.374756 557.500000,198.500000 
	C551.380066,196.674805 545.433411,201.284286 539.548828,199.351288 
	C534.662292,197.746140 529.162109,196.284088 526.852173,190.102066 
	C530.799500,188.303314 527.853210,182.922989 530.651917,181.254883 
	C533.382080,179.627609 536.438965,177.596176 540.000977,177.499588 
	C541.505676,176.334045 538.992737,174.665756 540.500000,173.500000 
"/>
<path fill="none" opacity="1.000000" stroke="#000000" stroke-linecap="round" stroke-linejoin="round" stroke-width="2.000000"
	d="
M598.500000,151.500000 
	C596.866638,151.316635 597.994812,153.204468 597.000000,153.500000 
	C600.250244,156.846497 597.818726,159.865784 596.521545,163.008881 
	C595.166199,166.292847 594.004700,169.124954 589.530029,169.724152 
	C586.536133,170.125061 584.350037,173.484238 582.132263,175.636276 
	C571.141541,186.301086 557.239929,192.001495 544.985352,196.459686 
	C543.962891,196.831650 542.848938,196.573547 541.968567,195.526459 
	C540.681335,193.995514 539.664429,186.153091 541.049438,184.542542 
	C543.460632,181.738785 544.586670,178.468613 545.550659,175.014145 
	C546.054016,173.210556 546.033569,171.152878 549.539795,171.776382 
	C553.143616,172.417267 550.113220,166.631027 554.216919,166.861526 
	C551.906433,164.084976 550.816528,166.198959 549.500000,166.500000 
"/>
<path fill="none" opacity="1.000000" stroke="#000000" stroke-linecap="round" stroke-linejoin="round" stroke-width="2.000000"
	d="
M839.500000,118.000000 
	C841.664185,114.281670 844.588623,111.306679 848.512939,109.528572 
	C853.994019,107.045113 858.426025,102.908012 863.873718,100.241943 
	C867.209351,98.609482 871.067322,98.296181 874.169739,95.703110 
	C875.756165,94.377190 876.758179,93.281456 876.953857,91.494942 
	C877.216797,89.093903 875.253540,88.247276 873.490723,87.522499 
	C869.189819,85.754143 864.996521,85.344391 860.972107,88.464012 
	C859.136963,89.886505 857.290283,91.324516 854.470032,90.620026 
	C852.975525,90.246712 851.679016,91.846558 850.474976,92.973274 
	C846.341492,96.841484 842.874023,101.400383 838.023987,104.537109 
	C834.076355,107.090240 833.310791,110.117264 836.489014,114.008972 
	C837.393982,115.117119 838.166687,116.333336 839.000000,117.500000 
"/>
<path fill="none" opacity="1.000000" stroke="#000000" stroke-linecap="round" stroke-linejoin="round" stroke-width="2.000000"
	d="
M140.500000,107.500000 
	C137.303284,110.273224 133.806702,112.585297 129.495636,112.948135 
	C125.944336,113.247040 123.450592,115.597778 120.536858,117.072807 
	C116.387123,119.173515 112.171021,120.431610 107.501228,120.549004 
	C102.947159,120.663483 98.673531,123.019051 94.000343,122.496948 
	C91.165154,122.180183 88.330345,121.856491 85.501114,121.491364 
	C83.783829,121.269745 83.719841,119.594582 82.948265,118.415695 
	C84.774582,117.157089 86.756668,116.445511 89.000031,116.498573 
	C98.392380,116.720711 107.557968,115.467903 116.516823,112.551682 
	C118.731514,111.830765 121.364471,113.217972 123.500000,111.500000 
"/>
<path fill="none" opacity="1.000000" stroke="#000000" stroke-linecap="round" stroke-linejoin="round" stroke-width="2.000000"
	d="
M384.500000,115.500000 
	C384.671417,110.538910 387.790253,107.243767 391.217133,104.323509 
	C390.414032,103.087738 390.383087,101.999496 388.478149,102.394714 
	C382.961578,103.539230 377.535156,104.517654 375.000000,110.500000 
	C368.756134,110.615021 366.509644,116.514717 362.791656,119.827339 
	C360.086731,122.237343 357.719055,123.227081 354.540863,124.141983 
	C351.136749,125.121925 348.547943,127.869164 344.529022,128.282303 
	C341.943054,128.548126 339.002075,130.586456 337.000000,133.000000 
"/>
<path fill="none" opacity="1.000000" stroke="#000000" stroke-linecap="round" stroke-linejoin="round" stroke-width="2.000000"
	d="
M814.500000,126.500000 
	C820.452637,125.589096 819.427368,121.005615 819.503540,116.811836 
	C821.878174,115.801216 824.886719,117.425667 827.101501,114.578987 
	C830.175964,110.627449 831.851135,106.264809 832.394531,101.487999 
	C832.627747,99.437965 833.079956,97.485550 833.618530,95.614189 
	C826.209045,88.477890 820.308044,86.564049 814.905212,89.552414 
	C815.517517,92.415245 817.615479,92.670731 820.000488,92.507492 
	C821.821960,92.382835 823.524780,92.526352 823.493408,94.999916 
	C823.470947,96.771553 824.057434,98.841362 821.499817,99.499306 
	C820.760498,99.689499 819.631287,98.929832 819.484924,100.498596 
	C818.864014,107.155350 812.586914,108.393318 808.347900,110.723312 
	C803.314392,113.490089 801.262329,116.596878 801.961548,122.004974 
	C802.041260,122.621826 801.589905,123.307320 801.312500,124.191612 
	C799.786987,125.750656 798.531372,123.384102 797.025757,123.442017 
	C794.414795,129.323563 794.169739,129.376068 790.002319,125.002098 
	C784.889221,127.676239 783.159607,133.451874 779.000000,137.000000 
"/>
<path fill="none" opacity="1.000000" stroke="#000000" stroke-linecap="round" stroke-linejoin="round" stroke-width="2.000000"
	d="
M719.500000,104.500000 
	C725.565063,100.939835 733.130615,99.834961 737.738525,93.442802 
	C735.951050,90.122337 734.265442,87.086433 730.000000,90.500000 
	C722.938049,88.319336 718.400146,95.974754 711.476074,95.219170 
	C709.296021,94.981285 706.701355,97.129601 704.525269,98.538986 
	C698.494751,102.444710 692.362305,106.160629 686.004089,109.507744 
	C683.531311,110.809441 681.164307,112.315079 681.027161,115.501167 
	C680.919495,118.000778 678.931885,117.843155 677.495728,117.925781 
	C675.061584,118.065849 673.093201,118.643051 671.919617,120.945137 
	C673.022705,123.276581 674.519409,124.049675 677.021545,123.054115 
	C678.797913,122.347321 680.822144,121.623329 682.500000,123.500000 
"/>
<path fill="none" opacity="1.000000" stroke="#000000" stroke-linecap="round" stroke-linejoin="round" stroke-width="2.000000"
	d="
M330.500000,113.500000 
	C333.364532,114.749580 336.059814,113.854240 338.476990,112.460091 
	C346.631439,107.756844 352.849030,99.873238 356.653625,89.584595 
	C352.346466,89.636482 348.026550,88.185593 345.405853,93.453156 
	C344.179626,95.917793 341.137451,94.473625 339.028564,95.096642 
	C336.736053,95.773888 334.666656,97.061981 332.428955,94.523346 
	C332.909851,102.102493 331.527802,108.772369 329.256409,115.585480 
	C327.562195,120.667274 322.891541,122.920593 320.871277,127.442490 
	C319.958008,129.486649 318.170868,131.038223 317.308411,133.430939 
	C316.172943,136.580963 313.349884,138.726456 309.500000,138.500000 
"/>
<path fill="none" opacity="1.000000" stroke="#000000" stroke-linecap="round" stroke-linejoin="round" stroke-width="2.000000"
	d="
M155.000000,60.000000 
	C153.628479,57.356644 151.705856,55.974327 148.490936,56.437054 
	C146.174240,56.770500 145.010239,55.142532 144.487595,53.003029 
	C144.069489,51.291454 143.506104,48.942604 141.973557,48.629387 
	C134.034470,47.006828 132.817688,37.740761 125.334259,35.423901 
	C131.818680,31.384003 129.138947,24.935205 131.191635,20.006018 
	C124.996315,19.811483 119.444832,23.406195 118.674057,29.521936 
	C117.654984,37.607849 118.779854,45.562469 125.500000,51.500000 
"/>
<path fill="none" opacity="1.000000" stroke="#000000" stroke-linecap="round" stroke-linejoin="round" stroke-width="2.000000"
	d="
M308.500000,41.500000 
	C304.488983,44.483692 299.848419,45.342606 295.340454,46.649059 
	C295.067719,46.067444 294.794952,45.485825 294.522186,44.904205 
	C299.681458,41.102802 304.662506,37.021534 310.055450,33.587086 
	C314.502747,30.754894 316.697296,26.890768 318.090149,22.025812 
	C319.072266,18.595598 318.007507,17.115334 315.063721,15.391214 
	C309.228302,11.973505 304.016541,14.517260 298.483948,15.937456 
	C291.437164,17.746338 284.956665,20.986713 278.628021,24.248426 
	C275.221344,26.004192 272.266693,22.567022 269.500000,25.000000 
"/>
<path fill="none" opacity="1.000000" stroke="#000000" stroke-linecap="round" stroke-linejoin="round" stroke-width="2.000000"
	d="
M716.000000,119.000000 
	C718.007446,119.077423 720.021423,118.319633 722.037903,119.431282 
	C722.804810,119.854103 724.397034,119.929573 724.936340,119.431114 
	C728.771973,115.885796 733.659302,117.072426 738.016724,116.691460 
	C741.850525,116.356277 741.647156,113.480484 742.717590,111.498276 
	C744.880066,111.334572 745.261902,113.266685 746.210083,113.802185 
	C752.204407,111.563423 758.601501,110.509827 763.008972,105.507927 
	C768.745056,98.998230 767.599243,92.277618 759.955017,88.593307 
	C756.931885,87.136269 753.284790,87.726967 750.014832,88.122643 
	C747.079529,88.477829 747.866638,90.756691 749.017212,92.488564 
	C752.686707,98.011963 751.353516,103.248947 744.960083,105.380211 
	C739.362488,107.246201 734.572510,110.823074 728.969666,112.391693 
	C725.303162,113.418205 723.672180,116.507317 721.000000,118.500000 
"/>
<path fill="none" opacity="1.000000" stroke="#000000" stroke-linecap="round" stroke-linejoin="round" stroke-width="2.000000"
	d="
M234.500000,44.500000 
	C226.751144,49.062660 219.946121,54.763462 214.099396,61.593849 
	C214.991272,62.179951 215.929077,63.238731 217.013397,63.419731 
	C219.526230,63.839195 220.271744,65.941711 219.835632,67.452553 
	C219.180557,69.721939 217.258179,68.492546 215.469864,68.164131 
	C213.391449,67.782440 210.708054,67.012657 208.991135,69.514954 
	C209.727631,73.011024 210.198364,74.939384 205.218277,77.021980 
	C200.070084,79.174873 196.338333,85.252220 192.662643,90.122742 
	C191.205261,92.053848 189.650543,93.896988 187.913422,95.399925 
	C186.064896,96.999245 184.389282,98.363861 184.504807,100.999786 
	C184.593643,103.026543 183.442398,105.094513 181.974579,105.358833 
	C174.444580,106.714828 180.270432,109.669807 181.023041,111.924431 
	C180.172134,114.715843 177.451675,114.829384 175.401047,115.744713 
	C177.468216,121.077652 178.948654,121.720207 183.501053,119.502151 
	C186.879562,117.856041 190.005600,115.851250 192.491592,112.992691 
	C194.993179,110.116203 197.898529,107.833855 201.500000,106.500000 
"/>
<path fill="none" opacity="1.000000" stroke="#000000" stroke-linecap="round" stroke-linejoin="round" stroke-width="2.000000"
	d="
M509.500000,73.000000 
	C499.646454,77.396553 499.283234,75.641037 494.456604,72.471497 
	C494.151855,72.639862 493.594971,72.762634 493.534027,73.008430 
	C492.244812,78.205940 488.196228,81.713379 485.688690,86.107674 
	C483.418243,90.086403 479.889435,90.339119 476.489929,91.469719 
	C474.590302,92.101494 472.152985,92.260597 471.620972,89.971878 
	C470.800018,86.440353 468.619598,84.880409 465.703003,84.653748 
	C465.120087,82.456230 465.921722,81.464966 466.984650,80.483368 
	C468.921814,78.694397 470.641510,77.177246 468.675140,73.895073 
	C467.429352,71.815590 469.411224,70.083366 471.992035,70.544548 
	C473.953796,70.895103 475.720551,71.801117 477.126495,73.387932 
	C477.242523,73.518936 480.748016,75.020508 480.413361,72.009628 
	C480.053528,68.771873 482.109833,67.194206 484.026794,65.530884 
	C488.686554,61.487637 491.904327,55.840622 498.432587,53.785816 
	C500.604980,53.102043 501.666779,53.369556 502.981476,54.521130 
	C504.396820,55.760853 505.634918,57.200397 507.007843,58.491657 
	C508.829895,60.205376 508.934479,61.702808 507.597809,64.055565 
	C504.559631,69.403221 504.772125,69.523941 510.000000,72.500000 
"/>
<path fill="none" opacity="1.000000" stroke="#000000" stroke-linecap="round" stroke-linejoin="round" stroke-width="2.000000"
	d="
M518.000000,104.500000 
	C517.811707,109.401588 518.325439,111.559227 520.556152,115.088852 
	C522.846008,114.698593 524.365295,112.535316 523.831604,111.060944 
	C522.057068,106.157997 525.440063,105.367790 528.515625,104.559380 
	C533.846008,103.158272 537.989075,99.499939 542.924072,97.327522 
	C545.238342,96.308754 547.558716,93.914520 546.906677,90.352081 
	C541.390503,86.318832 534.960632,89.520737 528.956482,88.140015 
	C529.930298,95.631821 520.809875,97.738274 521.492432,104.446098 
	C518.681885,104.727211 517.066650,103.900017 516.500000,101.500000 
"/>
<path fill="none" opacity="1.000000" stroke="#000000" stroke-linecap="round" stroke-linejoin="round" stroke-width="2.000000"
	d="
M441.000000,108.500000 
	C440.975311,110.730453 441.005066,112.646454 442.867249,114.624954 
	C444.854919,116.736839 445.582825,119.285530 443.203156,122.643944 
	C440.462860,126.511238 439.268463,131.473892 437.135284,136.603928 
	C434.824066,135.549377 431.436127,138.458374 429.527557,134.486755 
	C427.893188,131.085770 429.888672,123.204720 433.000000,120.000000 
	C432.748138,118.341850 431.421539,116.983376 432.420746,114.960838 
	C433.765411,112.239006 433.609772,112.087852 436.496490,114.005280 
	C438.088654,115.062836 439.187378,114.572517 440.000000,113.000000 
"/>
<path fill="none" opacity="1.000000" stroke="#000000" stroke-linecap="round" stroke-linejoin="round" stroke-width="2.000000"
	d="
M452.500000,112.500000 
	C454.235992,112.006660 455.552277,110.683319 457.488342,110.415588 
	C459.934265,110.077347 462.311188,108.057053 462.296112,106.001495 
	C462.265656,101.844208 464.815887,99.193024 466.742371,96.125687 
	C465.176605,91.980118 461.893646,91.812019 458.500946,92.015526 
	C454.439026,92.259171 452.110107,94.477554 451.500000,98.500000 
"/>
<path fill="none" opacity="1.000000" stroke="#000000" stroke-linecap="round" stroke-linejoin="round" stroke-width="2.000000"
	d="
M607.000000,145.500000 
	C608.043823,146.353806 607.204834,147.528931 607.511047,148.496506 
	C608.051086,150.203033 609.277893,150.635071 611.002075,150.537018 
	C613.467712,150.396835 613.768188,148.792084 613.453613,147.008179 
	C613.069275,144.828568 612.341919,142.709442 611.655945,140.167862 
	C614.870239,139.349991 619.041016,139.947617 619.109497,135.001511 
	C619.116577,134.487396 619.732910,133.460632 619.448608,133.034286 
	C616.456360,128.548233 619.387634,125.576424 621.783325,122.502708 
	C623.859436,122.379601 625.512878,124.524788 627.946655,122.664688 
	C624.619995,116.314217 629.231995,113.983154 633.956360,111.419586 
	C636.009705,110.305382 638.450256,109.456253 638.761169,106.023659 
	C638.909546,104.386147 641.635376,102.638847 643.549133,101.589638 
	C646.051208,100.217880 645.823486,98.563713 644.985657,96.498299 
	C651.191467,97.234840 651.184509,97.227722 656.003418,92.503479 
	C657.942322,90.602669 659.567139,88.046272 663.057922,89.890343 
	C663.678040,90.217888 665.070435,89.284439 666.051941,88.571510 
	C667.674683,87.392784 677.156128,88.743118 678.510376,89.988708 
	C679.501282,90.900085 679.185608,92.745522 678.936462,92.891975 
	C673.784424,95.921082 672.981262,103.339905 666.516418,105.061607 
	C664.643127,105.560486 663.632629,107.311089 662.352661,108.879791 
	C657.142395,115.265297 652.028748,121.809380 645.519897,127.024864 
	C644.707275,127.676010 644.228149,128.726730 643.485962,129.486298 
	C642.296082,130.704117 643.259338,131.973679 643.603760,132.963913 
	C644.019714,134.160004 645.901428,133.794067 646.434998,133.409729 
	C649.240540,131.388702 651.833313,133.047302 654.500000,133.500000 
"/>
<path fill="none" opacity="1.000000" stroke="#000000" stroke-linecap="round" stroke-linejoin="round" stroke-width="2.000000"
	d="
M597.500000,108.500000 
	C600.304932,106.493385 601.261841,102.506714 605.311340,101.772575 
	C604.480347,99.531052 602.357788,97.829254 604.150696,95.286240 
	C607.500000,95.453827 611.000000,102.620888 614.520691,95.531395 
	C610.301514,89.123184 605.756592,88.729683 601.043396,94.535255 
	C599.475891,96.466125 597.647034,96.696091 595.500000,96.500000 
"/>
<path fill="none" opacity="1.000000" stroke="#000000" stroke-linecap="round" stroke-linejoin="round" stroke-width="2.000000"
	d="
M383.000000,136.500000 
	C380.360291,141.050385 376.150543,141.562073 371.498413,141.013382 
	C370.236176,140.864517 369.477936,140.629044 369.452728,139.000732 
	C369.332275,131.225021 364.637207,127.867836 357.502197,126.982338 
	C357.159210,126.939766 356.848145,126.639870 356.177765,126.269508 
	C353.014374,130.544174 347.712585,131.709656 343.621246,134.667709 
	C341.437866,136.246307 339.936188,135.043274 339.105591,134.369781 
	C336.601379,132.339233 335.179230,132.729507 334.000000,135.500000 
"/>
<path fill="none" opacity="1.000000" stroke="#000000" stroke-linecap="round" stroke-linejoin="round" stroke-width="2.000000"
	d="
M172.500000,4.000000 
	C164.380295,5.131336 155.899109,4.702946 148.908890,10.387972 
	C147.541931,11.499691 144.990250,11.484661 143.002335,11.423717 
	C140.186249,11.337382 138.112518,12.299354 136.500000,14.500000 
"/>
<path fill="none" opacity="1.000000" stroke="#000000" stroke-linecap="round" stroke-linejoin="round" stroke-width="2.000000"
	d="
M10.500000,85.500000 
	C2.750118,93.560631 1.802667,102.889267 5.535851,112.986748 
	C6.600940,115.867592 7.053478,119.244995 12.041564,118.198021 
	C15.254265,117.523697 16.280403,120.213974 14.956136,124.646828 
	C17.731493,126.399559 21.204252,127.230690 22.624132,130.952652 
	C23.269743,132.644989 25.484854,133.133911 27.478504,133.593292 
	C31.058163,134.418167 34.506958,135.810959 38.067894,136.985382 
	C39.966534,136.391571 40.504509,134.711716 41.019600,132.940491 
	C40.860138,132.651855 40.732231,132.279800 40.491463,132.007553 
	C39.025620,130.350052 37.042896,129.496552 34.992039,129.035400 
	C26.488598,127.123322 20.756659,121.811340 16.455837,114.526070 
	C15.440773,112.806633 15.416297,110.529297 12.036682,110.162247 
	C9.745726,109.913437 11.293365,106.195381 11.534669,103.657532 
	C16.692516,103.488152 18.773008,99.681229 20.500000,95.500000 
"/>
<path fill="none" opacity="1.000000" stroke="#000000" stroke-linecap="round" stroke-linejoin="round" stroke-width="2.000000"
	d="
M980.500000,94.500000 
	C979.000000,92.423630 977.477051,92.533508 976.005676,94.504234 
	C974.028687,97.152092 977.307739,97.511383 978.049255,98.457825 
	C975.585205,100.918526 973.417053,103.083725 970.898071,105.599304 
	C969.065918,105.901154 968.625488,103.137993 966.964539,102.611862 
	C965.780823,102.236900 964.212219,102.045280 962.934204,103.439720 
	C961.922424,104.543808 962.131897,105.330498 962.469788,106.508667 
	C964.042114,111.991348 962.553833,115.050140 957.497314,116.992935 
	C957.352051,117.048744 957.140686,116.944260 957.003784,117.008080 
	C952.974243,118.885902 954.012756,123.880157 951.057007,126.562805 
	C948.245239,129.114746 947.447510,132.389359 949.472595,136.015289 
	C950.310852,137.516174 950.358459,139.527985 948.921082,140.364319 
	C947.799744,141.016754 945.678589,143.059448 944.500000,140.000000 
	C937.319031,141.521912 935.065735,135.507309 931.500000,131.500000 
"/>
<path fill="none" opacity="1.000000" stroke="#000000" stroke-linecap="round" stroke-linejoin="round" stroke-width="2.000000"
	d="
M810.500000,130.500000 
	C806.689026,133.146545 802.730774,135.495285 799.377808,138.878937 
	C797.074524,141.203293 793.359863,141.990845 790.020569,141.386353 
	C787.474731,140.925507 784.863525,140.636963 782.532227,141.147217 
	C779.381287,141.836853 778.588135,140.367798 778.000000,138.000000 
"/>
<path fill="none" opacity="1.000000" stroke="#000000" stroke-linecap="round" stroke-linejoin="round" stroke-width="2.000000"
	d="
M516.500000,122.500000 
	C515.769836,124.654770 513.762878,124.965996 511.992828,125.475113 
	C507.602081,126.738014 502.488586,126.904816 502.423706,133.499252 
	C502.402985,135.604431 499.765930,135.410141 498.567078,136.605804 
	C497.058807,134.226791 497.058807,134.226791 500.027924,125.417175 
	C501.500000,124.715500 503.000000,128.571991 504.500000,125.500000 
"/>
<path fill="none" opacity="1.000000" stroke="#000000" stroke-linecap="round" stroke-linejoin="round" stroke-width="2.000000"
	d="
M172.000000,6.000000 
	C165.919464,7.084233 160.461182,9.636649 154.909485,12.312174 
	C150.220383,14.571994 144.815628,17.451303 139.500000,13.000000 
"/>
<path fill="none" opacity="1.000000" stroke="#000000" stroke-linecap="round" stroke-linejoin="round" stroke-width="2.000000"
	d="
M220.500000,109.500000 
	C217.441040,111.038467 216.376312,113.386322 218.065811,116.463875 
	C218.568146,117.378914 218.530075,118.182243 218.467285,118.997482 
	C218.104904,123.703712 218.498199,127.349243 224.435165,128.770752 
	C227.140213,129.418442 229.973663,132.963318 230.292816,136.021622 
	C230.828644,141.156281 233.645645,140.596649 238.135269,140.225601 
	C234.243393,137.823105 234.403427,135.761063 235.704910,132.386200 
	C236.825241,129.481171 235.816238,125.877480 237.200668,122.381462 
	C238.217255,119.814316 239.098190,117.488266 240.988998,115.489586 
	C244.424316,111.858276 247.776230,108.203110 246.056793,102.482925 
	C245.717834,101.355324 245.538864,99.844437 247.639328,99.238815 
	C248.386337,100.522125 249.410736,102.281944 250.583313,104.296318 
	C255.807083,100.531204 262.085846,98.431580 266.269897,92.983131 
	C264.976715,91.689949 263.810059,90.523285 261.723663,88.436890 
	C260.878326,90.207573 260.121704,91.792458 259.582428,92.922028 
	C256.666656,91.784950 254.834167,89.570755 252.999512,92.499695 
	C252.410995,93.439240 251.450821,93.327835 250.511810,93.549919 
	C240.576447,95.899612 231.271484,99.615143 223.500000,106.500000 
"/>
<path fill="none" opacity="1.000000" stroke="#000000" stroke-linecap="round" stroke-linejoin="round" stroke-width="2.000000"
	d="
M397.000000,104.999992 
	C397.833344,104.666664 398.700439,103.985634 399.493896,104.062737 
	C402.296356,104.335075 404.159607,103.479149 404.482239,100.498077 
	C404.795441,97.603874 406.713348,96.634415 408.953369,97.607384 
	C411.621796,98.766457 411.730652,96.616287 412.450531,95.468956 
	C413.633453,93.583694 414.500519,91.500244 415.544556,89.412872 
	C414.105743,86.658371 412.035980,85.774254 408.980896,86.950386 
	C407.763794,87.418945 406.148560,86.988625 405.043427,87.581024 
	C403.397675,88.463173 399.970551,86.755493 400.338318,91.013962 
	C400.493591,92.812103 397.571655,91.302155 396.500000,92.500000 
"/>
<path fill="none" opacity="1.000000" stroke="#000000" stroke-linecap="round" stroke-linejoin="round" stroke-width="2.000000"
	d="
M285.500000,107.500000 
	C289.712280,108.620209 295.720490,106.558479 296.314270,102.969269 
	C296.963135,99.046852 300.066071,101.387878 301.686157,99.877304 
	C301.132355,98.768059 300.476624,97.669136 300.015961,96.493736 
	C298.281891,92.069160 295.129150,89.454781 291.002258,89.576691 
	C289.609650,89.617821 287.867126,89.938324 288.859528,92.553307 
	C289.385620,93.939545 288.459290,95.862465 286.500641,96.501953 
	C281.456665,98.148773 283.004395,102.001465 283.500000,105.500000 
"/>
<path fill="none" opacity="1.000000" stroke="#000000" stroke-linecap="round" stroke-linejoin="round" stroke-width="2.000000"
	d="
M546.500000,124.500000 
	C547.988281,124.227928 549.812927,125.295166 550.962158,123.967262 
	C554.835144,119.492218 560.644287,119.945877 565.566162,117.971573 
	C567.182861,119.695496 566.756226,121.578835 566.001526,123.500603 
	C563.770264,129.182831 568.116333,132.994934 570.024109,137.489777 
	C570.451599,138.497025 571.468567,138.614166 572.500671,138.506241 
	C578.679993,137.860016 578.998901,137.950089 582.233093,141.236862 
	C584.212280,139.508301 584.322388,136.437943 582.896179,135.700989 
	C578.250183,133.300354 580.493958,129.733154 580.500000,126.500000 
"/>
<path fill="none" opacity="1.000000" stroke="#000000" stroke-linecap="round" stroke-linejoin="round" stroke-width="2.000000"
	d="
M591.500000,100.500000 
	C587.386353,101.277115 583.249207,101.808037 579.459656,103.927887 
	C577.405151,105.077209 574.314697,102.579781 572.500000,105.500000 
"/>
<path fill="none" opacity="1.000000" stroke="#000000" stroke-linecap="round" stroke-linejoin="round" stroke-width="2.000000"
	d="
M130.500000,55.500000 
	C132.826767,56.933067 134.971741,58.306911 137.975204,58.692932 
	C141.672012,59.168060 145.451416,60.446705 148.500000,63.000000 
"/>
<path fill="none" opacity="1.000000" stroke="#000000" stroke-linecap="round" stroke-linejoin="round" stroke-width="2.000000"
	d="
M157.500000,64.500000 
	C159.550995,66.123871 161.891647,67.486412 164.483307,66.923218 
	C168.817337,65.981400 172.459244,66.704979 175.247681,70.377037 
	C177.063019,69.087044 178.531509,68.043526 180.000000,67.000000 
"/>
<path fill="none" opacity="1.000000" stroke="#000000" stroke-linecap="round" stroke-linejoin="round" stroke-width="2.000000"
	d="
M925.500000,131.500031 
	C921.666687,133.500031 918.037720,136.394699 913.960266,137.326126 
	C903.293640,139.762741 892.545837,145.073654 881.500000,138.500000 
"/>
<path fill="none" opacity="1.000000" stroke="#000000" stroke-linecap="round" stroke-linejoin="round" stroke-width="2.000000"
	d="
M992.500000,113.500000 
	C994.333313,112.445236 996.286987,111.296417 997.968201,113.524002 
	C999.887024,116.066422 997.376404,117.368401 995.943176,118.422714 
	C993.309143,120.360306 990.471680,122.189789 987.447083,123.363678 
	C985.687622,124.046539 982.912109,124.329559 982.523560,120.997253 
	C982.506653,120.852013 982.811401,120.629341 983.007996,120.513588 
	C983.131775,120.440689 983.333313,120.500000 983.500000,120.500000 
"/>
<path fill="none" opacity="1.000000" stroke="#000000" stroke-linecap="round" stroke-linejoin="round" stroke-width="2.000000"
	d="
M382.500000,117.500000 
	C380.567688,118.501274 378.409973,119.220818 377.478149,121.432060 
	C377.707855,123.292137 379.714783,123.285225 381.084473,124.499321 
	C377.146454,127.883057 372.688782,127.480553 367.775238,127.494530 
	C371.014099,132.372406 375.578735,135.050903 378.000000,139.500000 
"/>
<path fill="none" opacity="1.000000" stroke="#000000" stroke-linecap="round" stroke-linejoin="round" stroke-width="2.000000"
	d="
M717.500000,106.500000 
	C717.683350,108.133369 716.078735,107.614929 715.455566,107.904358 
	C710.043274,110.418221 708.792053,114.700218 712.000000,120.500000 
"/>
<path fill="none" opacity="1.000000" stroke="#000000" stroke-linecap="round" stroke-linejoin="round" stroke-width="2.000000"
	d="
M311.500000,118.500000 
	C312.045349,119.618668 312.157227,120.498444 311.031982,121.534729 
	C306.601868,125.614601 305.387115,131.068069 307.500000,136.500000 
"/>
<path fill="none" opacity="1.000000" stroke="#000000" stroke-linecap="round" stroke-linejoin="round" stroke-width="2.000000"
	d="
M571.500000,57.000004 
	C572.000000,56.833340 572.638672,56.807159 572.975220,56.474930 
	C574.229248,55.236958 576.599670,53.891388 575.356689,52.099407 
	C573.919556,50.027527 571.548462,50.250488 568.919434,51.297775 
	C567.172791,51.993572 567.057800,53.379097 567.137329,53.981884 
	C567.402527,55.992245 569.312744,56.232929 571.000000,56.500000 
"/>
<path fill="none" opacity="1.000000" stroke="#000000" stroke-linecap="round" stroke-linejoin="round" stroke-width="2.000000"
	d="
M445.500000,102.500000 
	C447.708618,106.419960 445.427490,111.025726 447.422821,115.038368 
	C447.848602,115.894531 447.830627,116.835365 449.000000,117.000000 
"/>
<path fill="none" opacity="1.000000" stroke="#000000" stroke-linecap="round" stroke-linejoin="round" stroke-width="2.000000"
	d="
M281.500000,129.500000 
	C278.236389,135.243973 274.339905,136.490829 268.604950,132.846649 
	C278.174835,132.487854 283.938049,125.833435 290.500000,120.500000 
"/>
<path fill="none" opacity="1.000000" stroke="#000000" stroke-linecap="round" stroke-linejoin="round" stroke-width="2.000000"
	d="
M313.500000,111.500008 
	C313.000000,110.833336 312.538452,110.132523 311.987000,109.511543 
	C311.593994,109.068985 311.080078,108.733818 310.574982,108.313141 
	C307.715240,111.414268 302.094635,109.602158 300.500000,114.500000 
"/>
<path fill="none" opacity="1.000000" stroke="#000000" stroke-linecap="round" stroke-linejoin="round" stroke-width="2.000000"
	d="
M201.500000,6.500000 
	C197.053085,1.813461 190.616135,2.257389 186.809845,7.775695 
	C191.494293,9.799085 195.063995,6.550628 199.000000,5.500000 
"/>
<path fill="none" opacity="1.000000" stroke="#000000" stroke-linecap="round" stroke-linejoin="round" stroke-width="2.000000"
	d="
M297.500000,122.500000 
	C293.768890,125.790588 289.766876,128.200714 284.500000,126.500000 
"/>
<path fill="none" opacity="1.000000" stroke="#000000" stroke-linecap="round" stroke-linejoin="round" stroke-width="2.000000"
	d="
M167.500000,61.499996 
	C166.833328,61.166664 165.809052,60.370667 165.553009,60.568577 
	C160.814011,64.231674 156.166672,59.683502 151.500000,60.500000 
"/>
<path fill="none" opacity="1.000000" stroke="#000000" stroke-linecap="round" stroke-linejoin="round" stroke-width="2.000000"
	d="
M180.500000,65.500000 
	C182.829132,70.511551 188.209961,67.130959 191.500000,69.500000 
"/>
<path fill="none" opacity="1.000000" stroke="#000000" stroke-linecap="round" stroke-linejoin="round" stroke-width="5.000000"
	d="
M600.500000,137.000000 
	C596.833313,135.859222 593.166687,137.788437 589.500000,137.000000 
"/>
<path fill="none" opacity="1.000000" stroke="#000000" stroke-linecap="round" stroke-linejoin="round" stroke-width="2.000000"
	d="
M394.000000,95.000000 
	C395.426361,97.669861 398.021210,100.141731 395.496002,103.497002 
	C394.354065,105.014297 396.658173,105.336166 396.500000,106.500000 
"/>
<path fill="none" opacity="1.000000" stroke="#000000" stroke-linecap="round" stroke-linejoin="round" stroke-width="3.000000"
	d="
M766.500000,116.500000 
	C764.808655,117.141983 763.077698,117.524483 762.942871,119.996887 
	C762.762024,123.312897 760.659058,125.215271 757.500000,126.000000 
"/>
<path fill="none" opacity="1.000000" stroke="#000000" stroke-linecap="round" stroke-linejoin="round" stroke-width="2.000000"
	d="
M191.500000,64.500000 
	C189.133713,61.763687 186.358978,61.428089 183.533707,63.544979 
	C181.746536,64.884056 179.202164,65.221344 178.129562,64.341965 
	C175.214890,61.952316 172.402359,63.246681 169.500000,63.500000 
"/>
<path fill="none" opacity="1.000000" stroke="#000000" stroke-linecap="round" stroke-linejoin="round" stroke-width="4.000000"
	d="
M184.500000,5.000000 
	C180.806351,5.426958 177.145218,5.138557 173.500000,4.500000 
"/>
<path fill="none" opacity="1.000000" stroke="#000000" stroke-linecap="round" stroke-linejoin="round" stroke-width="2.000000"
	d="
M200.000000,3.500000 
	C201.402618,3.007521 202.360428,4.071832 203.500000,4.500000 
"/>
<path fill="none" opacity="1.000000" stroke="#000000" stroke-linecap="round" stroke-linejoin="round" stroke-width="2.000000"
	d="
M561.500000,116.500000 
	C560.259583,117.044838 559.174561,117.776108 558.500000,119.000000 
"/>
<path fill="none" opacity="1.000000" stroke="#000000" stroke-linecap="round" stroke-linejoin="round" stroke-width="2.000000"
	d="
M59.500000,115.500000 
	C58.153744,116.072563 57.021782,116.823708 56.950977,118.476784 
	C62.310593,121.014702 76.447456,121.328857 79.742920,118.814674 
	C73.334358,115.970490 66.198288,118.347649 60.000000,115.500000 
"/>
</svg>